M48
; DRILL file {KiCad 8.99.0-unknown-30cebd17e0~181~ubuntu24.04.1} date 2024-11-25T22:33:41-0500
; FORMAT={-:-/ absolute / inch / decimal}
; #@! TF.CreationDate,2024-11-25T22:33:41-05:00
; #@! TF.GenerationSoftware,Kicad,Pcbnew,8.99.0-unknown-30cebd17e0~181~ubuntu24.04.1
; #@! TF.FileFunction,Plated,1,4,PTH
FMAT,2
INCH
; #@! TA.AperFunction,Plated,PTH,ViaDrill
T1C0.0118
; #@! TA.AperFunction,Plated,PTH,ComponentDrill
T2C0.0394
%
G90
G05
T1
X5.0622Y-3.3724
X5.0682Y-3.1803
X5.0744Y-3.2882
X5.0795Y-3.3201
X5.0992Y-3.1748
X5.1413Y-3.2417
X5.1543Y-3.376
X5.1724Y-3.3528
X5.1811Y-3.3906
X5.2165Y-3.3756
X5.2185Y-3.2847
X5.2335Y-3.2232
X5.2632Y-3.2272
X5.2657Y-3.1929
X5.2811Y-3.4071
X5.3Y-3.302
X5.3185Y-3.1949
X5.3189Y-3.4071
X5.3528Y-3.2272
X5.4193Y-3.3339
X5.4193Y-3.3717
X5.4374Y-3.4295
X5.4843Y-3.2126
X5.4874Y-3.3429
X5.4913Y-3.4295
T2
X5.0Y-3.2
X5.0Y-3.3
X5.0Y-3.4
X5.0Y-3.5
X5.6Y-3.2
X5.6Y-3.3
X5.6Y-3.4
M30
