%TF.GenerationSoftware,KiCad,Pcbnew,8.99.0-unknown-30cebd17e0~181~ubuntu24.04.1*%
%TF.CreationDate,2024-11-25T22:33:41-05:00*%
%TF.ProjectId,MicroIMU,4d696372-6f49-44d5-952e-6b696361645f,rev?*%
%TF.SameCoordinates,Original*%
%TF.FileFunction,Legend,Top*%
%TF.FilePolarity,Positive*%
%FSLAX46Y46*%
G04 Gerber Fmt 4.6, Leading zero omitted, Abs format (unit mm)*
G04 Created by KiCad (PCBNEW 8.99.0-unknown-30cebd17e0~181~ubuntu24.04.1) date 2024-11-25 22:33:41*
%MOMM*%
%LPD*%
G01*
G04 APERTURE LIST*
G04 Aperture macros list*
%AMRoundRect*
0 Rectangle with rounded corners*
0 $1 Rounding radius*
0 $2 $3 $4 $5 $6 $7 $8 $9 X,Y pos of 4 corners*
0 Add a 4 corners polygon primitive as box body*
4,1,4,$2,$3,$4,$5,$6,$7,$8,$9,$2,$3,0*
0 Add four circle primitives for the rounded corners*
1,1,$1+$1,$2,$3*
1,1,$1+$1,$4,$5*
1,1,$1+$1,$6,$7*
1,1,$1+$1,$8,$9*
0 Add four rect primitives between the rounded corners*
20,1,$1+$1,$2,$3,$4,$5,0*
20,1,$1+$1,$4,$5,$6,$7,0*
20,1,$1+$1,$6,$7,$8,$9,0*
20,1,$1+$1,$8,$9,$2,$3,0*%
G04 Aperture macros list end*
%ADD10C,0.300000*%
%ADD11C,0.120000*%
%ADD12C,0.100000*%
%ADD13RoundRect,0.140000X0.140000X0.170000X-0.140000X0.170000X-0.140000X-0.170000X0.140000X-0.170000X0*%
%ADD14RoundRect,0.140000X-0.140000X-0.170000X0.140000X-0.170000X0.140000X0.170000X-0.140000X0.170000X0*%
%ADD15R,1.700000X1.700000*%
%ADD16O,1.700000X1.700000*%
%ADD17RoundRect,0.135000X-0.135000X-0.185000X0.135000X-0.185000X0.135000X0.185000X-0.135000X0.185000X0*%
%ADD18R,0.375000X0.350000*%
%ADD19R,0.350000X0.375000*%
%ADD20RoundRect,0.140000X-0.170000X0.140000X-0.170000X-0.140000X0.170000X-0.140000X0.170000X0.140000X0*%
%ADD21RoundRect,0.225000X-0.225000X-0.250000X0.225000X-0.250000X0.225000X0.250000X-0.225000X0.250000X0*%
%ADD22R,0.675000X0.250000*%
%ADD23R,0.250000X0.675000*%
%ADD24C,1.700000*%
%ADD25RoundRect,0.140000X0.170000X-0.140000X0.170000X0.140000X-0.170000X0.140000X-0.170000X-0.140000X0*%
G04 APERTURE END LIST*
D10*
X137144510Y-83610828D02*
X137144510Y-82610828D01*
X137144510Y-82110828D02*
X137073082Y-82182257D01*
X137073082Y-82182257D02*
X137144510Y-82253685D01*
X137144510Y-82253685D02*
X137215939Y-82182257D01*
X137215939Y-82182257D02*
X137144510Y-82110828D01*
X137144510Y-82110828D02*
X137144510Y-82253685D01*
X137730225Y-82090828D02*
X137787368Y-82033685D01*
X137787368Y-82033685D02*
X137901654Y-81976542D01*
X137901654Y-81976542D02*
X138187368Y-81976542D01*
X138187368Y-81976542D02*
X138301654Y-82033685D01*
X138301654Y-82033685D02*
X138358796Y-82090828D01*
X138358796Y-82090828D02*
X138415939Y-82205114D01*
X138415939Y-82205114D02*
X138415939Y-82319400D01*
X138415939Y-82319400D02*
X138358796Y-82490828D01*
X138358796Y-82490828D02*
X137673082Y-83176542D01*
X137673082Y-83176542D02*
X138415939Y-83176542D01*
X139644511Y-83539400D02*
X139501653Y-83610828D01*
X139501653Y-83610828D02*
X139215939Y-83610828D01*
X139215939Y-83610828D02*
X139073082Y-83539400D01*
X139073082Y-83539400D02*
X139001653Y-83467971D01*
X139001653Y-83467971D02*
X138930225Y-83325114D01*
X138930225Y-83325114D02*
X138930225Y-82896542D01*
X138930225Y-82896542D02*
X139001653Y-82753685D01*
X139001653Y-82753685D02*
X139073082Y-82682257D01*
X139073082Y-82682257D02*
X139215939Y-82610828D01*
X139215939Y-82610828D02*
X139501653Y-82610828D01*
X139501653Y-82610828D02*
X139644511Y-82682257D01*
D11*
%TO.C,C6*%
X130707836Y-80280000D02*
X130492164Y-80280000D01*
X130707836Y-81000000D02*
X130492164Y-81000000D01*
%TO.C,C2*%
X134512164Y-85520000D02*
X134727836Y-85520000D01*
X134512164Y-86240000D02*
X134727836Y-86240000D01*
%TO.C,R2*%
X129526359Y-86310000D02*
X129833641Y-86310000D01*
X129526359Y-87070000D02*
X129833641Y-87070000D01*
%TO.C,U2*%
X129500000Y-81250000D02*
X130000000Y-81250000D01*
X129500000Y-81750000D02*
X129500000Y-81250000D01*
X129500000Y-82950000D02*
X129500000Y-82950000D01*
X129500000Y-83450000D02*
X129500000Y-82950000D01*
X130000000Y-81250000D02*
X130000000Y-81250000D01*
X130000000Y-83450000D02*
X129500000Y-83450000D01*
X131200000Y-81250000D02*
X131700000Y-81250000D01*
X131200000Y-83450000D02*
X131500000Y-83450000D01*
X131700000Y-81250000D02*
X131700000Y-81750000D01*
X131700000Y-81750000D02*
X131700000Y-81750000D01*
X131700000Y-82950000D02*
X131700000Y-83250000D01*
X131700000Y-83450000D02*
X131700000Y-83450000D01*
%TO.C,C5*%
X131950000Y-82242164D02*
X131950000Y-82457836D01*
X132670000Y-82242164D02*
X132670000Y-82457836D01*
%TO.C,C3*%
X130459420Y-83820000D02*
X130740580Y-83820000D01*
X130459420Y-84840000D02*
X130740580Y-84840000D01*
D12*
%TO.C,U1*%
X133020000Y-85170000D02*
X133020000Y-84950000D01*
X133020000Y-85170000D02*
X133740000Y-85170000D01*
X133220000Y-82470000D02*
X133740000Y-82470000D01*
X135500000Y-82470000D02*
X136220000Y-82470000D01*
X136220000Y-82470000D02*
X136220000Y-82690000D01*
X136220000Y-84950000D02*
X136220000Y-85170000D01*
X136220000Y-85170000D02*
X135500000Y-85170000D01*
D11*
%TO.C,R1*%
X129526359Y-85370000D02*
X129833641Y-85370000D01*
X129526359Y-86130000D02*
X129833641Y-86130000D01*
%TO.C,C4*%
X128530000Y-82457836D02*
X128530000Y-82242164D01*
X129250000Y-82457836D02*
X129250000Y-82242164D01*
%TO.C,C1*%
X136570000Y-85052164D02*
X136570000Y-85267836D01*
X137290000Y-85052164D02*
X137290000Y-85267836D01*
%TD*%
%LPC*%
D13*
%TO.C,C6*%
X131080000Y-80640000D03*
X130120000Y-80640000D03*
%TD*%
D14*
%TO.C,C2*%
X134140000Y-85880000D03*
X135100000Y-85880000D03*
%TD*%
D15*
%TO.C,J1*%
X127000000Y-81280000D03*
D16*
X127000000Y-83820000D03*
X127000000Y-86360000D03*
X127000000Y-88900000D03*
%TD*%
D17*
%TO.C,R2*%
X129170000Y-86690000D03*
X130190000Y-86690000D03*
%TD*%
D18*
%TO.C,U2*%
X131362500Y-83100000D03*
X131362500Y-82600000D03*
X131362500Y-82100000D03*
X131362500Y-81600000D03*
D19*
X130850000Y-81587500D03*
X130350000Y-81587500D03*
D18*
X129837500Y-81600000D03*
X129837500Y-82100000D03*
X129837500Y-82600000D03*
X129837500Y-83100000D03*
D19*
X130350000Y-83112500D03*
X130850000Y-83112500D03*
%TD*%
D20*
%TO.C,C5*%
X132310000Y-81870000D03*
X132310000Y-82830000D03*
%TD*%
D21*
%TO.C,C3*%
X129825000Y-84330000D03*
X131375000Y-84330000D03*
%TD*%
D22*
%TO.C,U1*%
X133357500Y-83070000D03*
X133357500Y-83570000D03*
X133357500Y-84070000D03*
X133357500Y-84570000D03*
D23*
X134120000Y-84832500D03*
X134620000Y-84832500D03*
X135120000Y-84832500D03*
D22*
X135882500Y-84570000D03*
X135882500Y-84070000D03*
X135882500Y-83570000D03*
X135882500Y-83070000D03*
D23*
X135120000Y-82807500D03*
X134620000Y-82807500D03*
X134120000Y-82807500D03*
%TD*%
D24*
%TO.C,J2*%
X142240000Y-81280000D03*
D16*
X142240000Y-83820000D03*
X142240000Y-86360000D03*
%TD*%
D17*
%TO.C,R1*%
X129170000Y-85750000D03*
X130190000Y-85750000D03*
%TD*%
D25*
%TO.C,C4*%
X128890000Y-82830000D03*
X128890000Y-81870000D03*
%TD*%
D20*
%TO.C,C1*%
X136930000Y-84680000D03*
X136930000Y-85640000D03*
%TD*%
%LPD*%
M02*
