%TF.GenerationSoftware,KiCad,Pcbnew,8.99.0-unknown-30cebd17e0~181~ubuntu24.04.1*%
%TF.CreationDate,2024-11-25T22:33:41-05:00*%
%TF.ProjectId,MicroIMU,4d696372-6f49-44d5-952e-6b696361645f,rev?*%
%TF.SameCoordinates,Original*%
%TF.FileFunction,Copper,L1,Top*%
%TF.FilePolarity,Positive*%
%FSLAX46Y46*%
G04 Gerber Fmt 4.6, Leading zero omitted, Abs format (unit mm)*
G04 Created by KiCad (PCBNEW 8.99.0-unknown-30cebd17e0~181~ubuntu24.04.1) date 2024-11-25 22:33:41*
%MOMM*%
%LPD*%
G01*
G04 APERTURE LIST*
G04 Aperture macros list*
%AMRoundRect*
0 Rectangle with rounded corners*
0 $1 Rounding radius*
0 $2 $3 $4 $5 $6 $7 $8 $9 X,Y pos of 4 corners*
0 Add a 4 corners polygon primitive as box body*
4,1,4,$2,$3,$4,$5,$6,$7,$8,$9,$2,$3,0*
0 Add four circle primitives for the rounded corners*
1,1,$1+$1,$2,$3*
1,1,$1+$1,$4,$5*
1,1,$1+$1,$6,$7*
1,1,$1+$1,$8,$9*
0 Add four rect primitives between the rounded corners*
20,1,$1+$1,$2,$3,$4,$5,0*
20,1,$1+$1,$4,$5,$6,$7,0*
20,1,$1+$1,$6,$7,$8,$9,0*
20,1,$1+$1,$8,$9,$2,$3,0*%
G04 Aperture macros list end*
%TA.AperFunction,SMDPad,CuDef*%
%ADD10RoundRect,0.140000X0.140000X0.170000X-0.140000X0.170000X-0.140000X-0.170000X0.140000X-0.170000X0*%
%TD*%
%TA.AperFunction,SMDPad,CuDef*%
%ADD11RoundRect,0.140000X-0.140000X-0.170000X0.140000X-0.170000X0.140000X0.170000X-0.140000X0.170000X0*%
%TD*%
%TA.AperFunction,ComponentPad*%
%ADD12R,1.700000X1.700000*%
%TD*%
%TA.AperFunction,ComponentPad*%
%ADD13O,1.700000X1.700000*%
%TD*%
%TA.AperFunction,SMDPad,CuDef*%
%ADD14RoundRect,0.135000X-0.135000X-0.185000X0.135000X-0.185000X0.135000X0.185000X-0.135000X0.185000X0*%
%TD*%
%TA.AperFunction,SMDPad,CuDef*%
%ADD15R,0.375000X0.350000*%
%TD*%
%TA.AperFunction,SMDPad,CuDef*%
%ADD16R,0.350000X0.375000*%
%TD*%
%TA.AperFunction,SMDPad,CuDef*%
%ADD17RoundRect,0.140000X-0.170000X0.140000X-0.170000X-0.140000X0.170000X-0.140000X0.170000X0.140000X0*%
%TD*%
%TA.AperFunction,SMDPad,CuDef*%
%ADD18RoundRect,0.225000X-0.225000X-0.250000X0.225000X-0.250000X0.225000X0.250000X-0.225000X0.250000X0*%
%TD*%
%TA.AperFunction,SMDPad,CuDef*%
%ADD19R,0.675000X0.250000*%
%TD*%
%TA.AperFunction,SMDPad,CuDef*%
%ADD20R,0.250000X0.675000*%
%TD*%
%TA.AperFunction,ComponentPad*%
%ADD21C,1.700000*%
%TD*%
%TA.AperFunction,SMDPad,CuDef*%
%ADD22RoundRect,0.140000X0.170000X-0.140000X0.170000X0.140000X-0.170000X0.140000X-0.170000X-0.140000X0*%
%TD*%
%TA.AperFunction,ViaPad*%
%ADD23C,0.600000*%
%TD*%
%TA.AperFunction,Conductor*%
%ADD24C,0.200000*%
%TD*%
G04 APERTURE END LIST*
D10*
%TO.P,C6,1*%
%TO.N,Net-(U2-C1)*%
X131080000Y-80640000D03*
%TO.P,C6,2*%
%TO.N,GND*%
X130120000Y-80640000D03*
%TD*%
D11*
%TO.P,C2,1*%
%TO.N,+3.3V*%
X134140000Y-85880000D03*
%TO.P,C2,2*%
%TO.N,GND*%
X135100000Y-85880000D03*
%TD*%
D12*
%TO.P,J1,1,Pin_1*%
%TO.N,+3.3V*%
X127000000Y-81280000D03*
D13*
%TO.P,J1,2,Pin_2*%
%TO.N,/SCL*%
X127000000Y-83820000D03*
%TO.P,J1,3,Pin_3*%
%TO.N,/SDA*%
X127000000Y-86360000D03*
%TO.P,J1,4,Pin_4*%
%TO.N,/INT_MAG*%
X127000000Y-88900000D03*
%TD*%
D14*
%TO.P,R2,1*%
%TO.N,/SDA*%
X129170000Y-86690000D03*
%TO.P,R2,2*%
%TO.N,+3.3V*%
X130190000Y-86690000D03*
%TD*%
D15*
%TO.P,U2,1,SCL/SPC*%
%TO.N,/SCL*%
X131362500Y-83100000D03*
%TO.P,U2,2,NC*%
%TO.N,unconnected-(U2-NC-Pad2)*%
X131362500Y-82600000D03*
%TO.P,U2,3,~{CS}*%
%TO.N,+3.3V*%
X131362500Y-82100000D03*
%TO.P,U2,4,SDA/SDI/SDO*%
%TO.N,/SDA*%
X131362500Y-81600000D03*
D16*
%TO.P,U2,5,C1*%
%TO.N,Net-(U2-C1)*%
X130850000Y-81587500D03*
%TO.P,U2,6,GND*%
%TO.N,GND*%
X130350000Y-81587500D03*
D15*
%TO.P,U2,7,DRDY*%
%TO.N,/INT_MAG*%
X129837500Y-81600000D03*
%TO.P,U2,8,GND*%
%TO.N,GND*%
X129837500Y-82100000D03*
%TO.P,U2,9,Vdd*%
%TO.N,+3.3V*%
X129837500Y-82600000D03*
%TO.P,U2,10,Vdd_IO*%
X129837500Y-83100000D03*
D16*
%TO.P,U2,11,NC*%
%TO.N,unconnected-(U2-NC-Pad11)*%
X130350000Y-83112500D03*
%TO.P,U2,12,NC*%
%TO.N,unconnected-(U2-NC-Pad12)*%
X130850000Y-83112500D03*
%TD*%
D17*
%TO.P,C5,1*%
%TO.N,+3.3V*%
X132310000Y-81870000D03*
%TO.P,C5,2*%
%TO.N,GND*%
X132310000Y-82830000D03*
%TD*%
D18*
%TO.P,C3,1*%
%TO.N,+3.3V*%
X129825000Y-84330000D03*
%TO.P,C3,2*%
%TO.N,GND*%
X131375000Y-84330000D03*
%TD*%
D19*
%TO.P,U1,1,SDO*%
%TO.N,GND*%
X133357500Y-83070000D03*
%TO.P,U1,2,ASDx*%
%TO.N,unconnected-(U1-ASDx-Pad2)*%
X133357500Y-83570000D03*
%TO.P,U1,3,ASCx*%
%TO.N,unconnected-(U1-ASCx-Pad3)*%
X133357500Y-84070000D03*
%TO.P,U1,4,INT1*%
%TO.N,/INT_IMU1*%
X133357500Y-84570000D03*
D20*
%TO.P,U1,5,VDDIO*%
%TO.N,+3.3V*%
X134120000Y-84832500D03*
%TO.P,U1,6,GNDIO*%
%TO.N,GND*%
X134620000Y-84832500D03*
%TO.P,U1,7,GND*%
X135120000Y-84832500D03*
D19*
%TO.P,U1,8,VDD*%
%TO.N,+3.3V*%
X135882500Y-84570000D03*
%TO.P,U1,9,INT2*%
%TO.N,/INT_IMU2*%
X135882500Y-84070000D03*
%TO.P,U1,10,OCSB*%
%TO.N,unconnected-(U1-OCSB-Pad10)*%
X135882500Y-83570000D03*
%TO.P,U1,11,OSDO*%
%TO.N,unconnected-(U1-OSDO-Pad11)*%
X135882500Y-83070000D03*
D20*
%TO.P,U1,12,CSB*%
%TO.N,+3.3V*%
X135120000Y-82807500D03*
%TO.P,U1,13,SCx*%
%TO.N,/SCL*%
X134620000Y-82807500D03*
%TO.P,U1,14,SDx*%
%TO.N,/SDA*%
X134120000Y-82807500D03*
%TD*%
D21*
%TO.P,J2,1,Pin_1*%
%TO.N,GND*%
X142240000Y-81280000D03*
D13*
%TO.P,J2,2,Pin_2*%
%TO.N,/INT_IMU2*%
X142240000Y-83820000D03*
%TO.P,J2,3,Pin_3*%
%TO.N,/INT_IMU1*%
X142240000Y-86360000D03*
%TD*%
D14*
%TO.P,R1,1*%
%TO.N,/SCL*%
X129170000Y-85750000D03*
%TO.P,R1,2*%
%TO.N,+3.3V*%
X130190000Y-85750000D03*
%TD*%
D22*
%TO.P,C4,1*%
%TO.N,+3.3V*%
X128890000Y-82830000D03*
%TO.P,C4,2*%
%TO.N,GND*%
X128890000Y-81870000D03*
%TD*%
D17*
%TO.P,C1,1*%
%TO.N,+3.3V*%
X136930000Y-84680000D03*
%TO.P,C1,2*%
%TO.N,GND*%
X136930000Y-85640000D03*
%TD*%
D23*
%TO.N,+3.3V*%
X128890000Y-83520000D03*
X135960000Y-81970000D03*
X130920000Y-85750000D03*
X134140000Y-86540000D03*
X131600000Y-86120000D03*
X129020000Y-84330000D03*
X137650000Y-84680000D03*
X132930000Y-81870000D03*
%TO.N,GND*%
X139380000Y-84910000D03*
X139480000Y-87110000D03*
X135100000Y-86540000D03*
X132550818Y-83432178D03*
X130590000Y-82340000D03*
X133685871Y-81972035D03*
X134620000Y-83870000D03*
X131380000Y-85160000D03*
X138110000Y-87110000D03*
X129520000Y-80640000D03*
X137650000Y-85640000D03*
X139300000Y-81600000D03*
%TO.N,/SCL*%
X128579265Y-85660000D03*
X135090000Y-81150000D03*
X132500000Y-85740000D03*
%TO.N,/SDA*%
X133750000Y-81100000D03*
%TO.N,/INT_MAG*%
X128732064Y-80778421D03*
%TD*%
D24*
%TO.N,+3.3V*%
X134120000Y-85410000D02*
X134120000Y-84832500D01*
X134140000Y-85820000D02*
X134140000Y-86540000D01*
X135120000Y-82140000D02*
X135120000Y-82807500D01*
X136450000Y-84680000D02*
X136930000Y-84680000D01*
X128890000Y-82830000D02*
X128890000Y-83520000D01*
X129825000Y-84330000D02*
X129020000Y-84330000D01*
X136340000Y-84570000D02*
X136450000Y-84680000D01*
X131900000Y-81870000D02*
X132310000Y-81870000D01*
X130190000Y-86690000D02*
X131030000Y-86690000D01*
X129520000Y-82600000D02*
X129837500Y-82600000D01*
X131362500Y-82100000D02*
X131670000Y-82100000D01*
X129825000Y-84330000D02*
X129825000Y-82612500D01*
X134140000Y-85880000D02*
X134140000Y-85430000D01*
X132310000Y-81870000D02*
X132930000Y-81870000D01*
X131030000Y-86690000D02*
X131600000Y-86120000D01*
X135290000Y-81970000D02*
X135120000Y-82140000D01*
X131670000Y-82100000D02*
X131900000Y-81870000D01*
X130190000Y-85750000D02*
X130920000Y-85750000D01*
X135960000Y-81970000D02*
X135290000Y-81970000D01*
X129825000Y-82612500D02*
X129837500Y-82600000D01*
X128890000Y-82830000D02*
X129290000Y-82830000D01*
X129290000Y-82830000D02*
X129520000Y-82600000D01*
X134140000Y-85880000D02*
X134140000Y-85820000D01*
X135882500Y-84570000D02*
X136340000Y-84570000D01*
X136930000Y-84680000D02*
X137650000Y-84680000D01*
X134140000Y-85430000D02*
X134120000Y-85410000D01*
%TO.N,GND*%
X135100000Y-85880000D02*
X135100000Y-86540000D01*
X134620000Y-84832500D02*
X135120000Y-84832500D01*
X131375000Y-85155000D02*
X131380000Y-85160000D01*
X130350000Y-82100000D02*
X130590000Y-82340000D01*
X129520000Y-80640000D02*
X130120000Y-80640000D01*
X129837500Y-82100000D02*
X130350000Y-82100000D01*
X132310000Y-83031360D02*
X132550818Y-83272178D01*
X136930000Y-85640000D02*
X137650000Y-85640000D01*
X132310000Y-82830000D02*
X132310000Y-83191360D01*
X130120000Y-81010000D02*
X130120000Y-80640000D01*
X130350000Y-81587500D02*
X130326000Y-81563500D01*
X129520000Y-82100000D02*
X129290000Y-81870000D01*
X131375000Y-84330000D02*
X131375000Y-85155000D01*
X135100000Y-84852500D02*
X135120000Y-84832500D01*
X129290000Y-81870000D02*
X128890000Y-81870000D01*
X133357500Y-83070000D02*
X133357500Y-82300406D01*
X134620000Y-84832500D02*
X134620000Y-83870000D01*
X130326000Y-81216000D02*
X130120000Y-81010000D01*
X129837500Y-82100000D02*
X129520000Y-82100000D01*
X130326000Y-81563500D02*
X130326000Y-81216000D01*
X133357500Y-82300406D02*
X133685871Y-81972035D01*
X135100000Y-85880000D02*
X135100000Y-84852500D01*
%TO.N,Net-(U2-C1)*%
X130850000Y-81280000D02*
X130850000Y-81587500D01*
X131080000Y-81050000D02*
X130850000Y-81280000D01*
X131080000Y-80640000D02*
X131080000Y-81050000D01*
%TO.N,/SCL*%
X127000000Y-83820000D02*
X127000000Y-84050000D01*
X131824110Y-83554000D02*
X132130000Y-83859890D01*
X127000000Y-84050000D02*
X128515000Y-85565000D01*
X134687871Y-81552129D02*
X135090000Y-81150000D01*
X128579265Y-85660000D02*
X128515000Y-85595735D01*
X128515000Y-85595735D02*
X128515000Y-85565000D01*
X132130000Y-85370000D02*
X132500000Y-85740000D01*
X128700000Y-85750000D02*
X129170000Y-85750000D01*
X131362500Y-83302500D02*
X131614000Y-83554000D01*
X131362500Y-83100000D02*
X131362500Y-83302500D01*
X132130000Y-83859890D02*
X132130000Y-85370000D01*
X131614000Y-83554000D02*
X131824110Y-83554000D01*
X128515000Y-85565000D02*
X128700000Y-85750000D01*
X134687871Y-82387078D02*
X134687871Y-81552129D01*
X134620000Y-82807500D02*
X134620000Y-82454949D01*
X134620000Y-82454949D02*
X134687871Y-82387078D01*
%TO.N,/SDA*%
X131550000Y-81147100D02*
X131550000Y-81130000D01*
X134120000Y-82387849D02*
X134286871Y-82220978D01*
X134286871Y-81636871D02*
X133750000Y-81100000D01*
X131362500Y-81600000D02*
X131362500Y-81334600D01*
X128400000Y-86690000D02*
X129170000Y-86690000D01*
X127000000Y-86360000D02*
X128070000Y-86360000D01*
X134286871Y-82220978D02*
X134286871Y-81636871D01*
X134120000Y-82807500D02*
X134120000Y-82387849D01*
X128070000Y-86360000D02*
X128400000Y-86690000D01*
X131580000Y-81100000D02*
X133750000Y-81100000D01*
X131362500Y-81334600D02*
X131550000Y-81147100D01*
X131550000Y-81130000D02*
X131580000Y-81100000D01*
%TO.N,/INT_MAG*%
X128765521Y-80778421D02*
X128732064Y-80778421D01*
X129837500Y-81600000D02*
X129837500Y-81612500D01*
X129611100Y-81624000D02*
X128765521Y-80778421D01*
X129837500Y-81612500D02*
X129826000Y-81624000D01*
X129826000Y-81624000D02*
X129611100Y-81624000D01*
%TO.N,/INT_IMU1*%
X133750000Y-87170000D02*
X136870000Y-87170000D01*
X133357500Y-86777500D02*
X133750000Y-87170000D01*
X136870000Y-87170000D02*
X137680000Y-86360000D01*
X137680000Y-86360000D02*
X142240000Y-86360000D01*
X133357500Y-84570000D02*
X133357500Y-86777500D01*
%TO.N,/INT_IMU2*%
X135882500Y-84070000D02*
X136830000Y-84070000D01*
X136830000Y-84070000D02*
X137080000Y-83820000D01*
X137080000Y-83820000D02*
X142240000Y-83820000D01*
%TD*%
%TA.AperFunction,Conductor*%
%TO.N,GND*%
G36*
X141229851Y-86678806D02*
G01*
X141243399Y-86699082D01*
X141309059Y-86857598D01*
X141309060Y-86857601D01*
X141424022Y-87029654D01*
X141570345Y-87175977D01*
X141742398Y-87290939D01*
X141742400Y-87290939D01*
X141742402Y-87290941D01*
X141933580Y-87370130D01*
X141960447Y-87375474D01*
X141976669Y-87378701D01*
X142016443Y-87405277D01*
X142025775Y-87452193D01*
X141999199Y-87491967D01*
X141964476Y-87502500D01*
X137113360Y-87502500D01*
X137100416Y-87497138D01*
X137069166Y-87484195D01*
X137050860Y-87440001D01*
X137054659Y-87430830D01*
X137069165Y-87395806D01*
X137087947Y-87377024D01*
X137110460Y-87354511D01*
X137786165Y-86678806D01*
X137830359Y-86660500D01*
X141185657Y-86660500D01*
X141229851Y-86678806D01*
G37*
%TD.AperFunction*%
%TA.AperFunction,Conductor*%
G36*
X134904721Y-83325817D02*
G01*
X134916769Y-83333867D01*
X134975252Y-83345500D01*
X135264748Y-83345500D01*
X135272559Y-83343946D01*
X135319475Y-83353275D01*
X135346053Y-83393047D01*
X135346054Y-83417434D01*
X135344501Y-83425251D01*
X135344500Y-83425254D01*
X135344500Y-83714748D01*
X135356132Y-83773230D01*
X135356133Y-83773231D01*
X135364182Y-83785278D01*
X135373513Y-83832195D01*
X135372575Y-83836211D01*
X135369902Y-83846161D01*
X135356133Y-83866769D01*
X135344500Y-83925252D01*
X135344500Y-83940746D01*
X135342361Y-83948711D01*
X135332430Y-83961636D01*
X135326194Y-83976694D01*
X135318375Y-83979932D01*
X135313219Y-83986645D01*
X135297056Y-83988763D01*
X135282000Y-83995000D01*
X135245000Y-83995000D01*
X135245000Y-85001500D01*
X135287500Y-85001500D01*
X135331694Y-85019806D01*
X135350000Y-85064000D01*
X135350000Y-85630000D01*
X135878789Y-85630000D01*
X135877143Y-85609078D01*
X135832031Y-85453803D01*
X135832030Y-85453802D01*
X135747718Y-85311237D01*
X135749794Y-85310008D01*
X135739129Y-85272427D01*
X135744999Y-85217833D01*
X135745000Y-85217822D01*
X135745000Y-84958000D01*
X135763306Y-84913806D01*
X135807500Y-84895500D01*
X136214640Y-84895500D01*
X136249471Y-84906105D01*
X136254528Y-84909499D01*
X136265489Y-84920460D01*
X136303893Y-84942632D01*
X136305643Y-84943807D01*
X136317810Y-84962099D01*
X136331182Y-84979526D01*
X136330887Y-84981759D01*
X136332136Y-84983636D01*
X136327806Y-85005171D01*
X136324939Y-85026952D01*
X136322890Y-85029621D01*
X136322707Y-85030533D01*
X136321653Y-85031234D01*
X136315006Y-85039896D01*
X136250281Y-85104621D01*
X136250279Y-85104622D01*
X136167969Y-85243802D01*
X136167968Y-85243803D01*
X136125494Y-85389999D01*
X136125495Y-85390000D01*
X137734505Y-85390000D01*
X137734504Y-85389999D01*
X137694497Y-85252292D01*
X137699746Y-85204745D01*
X137737078Y-85174837D01*
X137738303Y-85174495D01*
X137843186Y-85146392D01*
X137957314Y-85080500D01*
X138050500Y-84987314D01*
X138116392Y-84873186D01*
X138150500Y-84745892D01*
X138150500Y-84614108D01*
X138126138Y-84523186D01*
X138116393Y-84486817D01*
X138116392Y-84486814D01*
X138080848Y-84425251D01*
X138050500Y-84372686D01*
X138050498Y-84372684D01*
X138050495Y-84372680D01*
X137957319Y-84279504D01*
X137957315Y-84279501D01*
X137957314Y-84279500D01*
X137883920Y-84237125D01*
X137854801Y-84199176D01*
X137861044Y-84151750D01*
X137898995Y-84122630D01*
X137915171Y-84120500D01*
X141185657Y-84120500D01*
X141229851Y-84138806D01*
X141243399Y-84159082D01*
X141309059Y-84317598D01*
X141309060Y-84317601D01*
X141424022Y-84489654D01*
X141570345Y-84635977D01*
X141742398Y-84750939D01*
X141742400Y-84750939D01*
X141742402Y-84750941D01*
X141933580Y-84830130D01*
X142136535Y-84870500D01*
X142343465Y-84870500D01*
X142546420Y-84830130D01*
X142737598Y-84750941D01*
X142909655Y-84635977D01*
X143055977Y-84489655D01*
X143170941Y-84317598D01*
X143250130Y-84126420D01*
X143258701Y-84083329D01*
X143285277Y-84043556D01*
X143332193Y-84034224D01*
X143371967Y-84060800D01*
X143382500Y-84095523D01*
X143382500Y-86084476D01*
X143364194Y-86128670D01*
X143320000Y-86146976D01*
X143275806Y-86128670D01*
X143258701Y-86096669D01*
X143251506Y-86060500D01*
X143250130Y-86053580D01*
X143170941Y-85862402D01*
X143170939Y-85862400D01*
X143170939Y-85862398D01*
X143055977Y-85690345D01*
X142909654Y-85544022D01*
X142737601Y-85429060D01*
X142737598Y-85429059D01*
X142546418Y-85349869D01*
X142343465Y-85309500D01*
X142136535Y-85309500D01*
X141933581Y-85349869D01*
X141742401Y-85429059D01*
X141742398Y-85429060D01*
X141570345Y-85544022D01*
X141570345Y-85544023D01*
X141424024Y-85690343D01*
X141424022Y-85690345D01*
X141309060Y-85862398D01*
X141309059Y-85862401D01*
X141243399Y-86020918D01*
X141209574Y-86054743D01*
X141185657Y-86059500D01*
X137768503Y-86059500D01*
X137724309Y-86041194D01*
X137706003Y-85997000D01*
X137708485Y-85979563D01*
X137734505Y-85890000D01*
X137180000Y-85890000D01*
X137180000Y-86409140D01*
X137161694Y-86453334D01*
X136763835Y-86851194D01*
X136719641Y-86869500D01*
X134635944Y-86869500D01*
X134624523Y-86864769D01*
X134612164Y-86864799D01*
X134603301Y-86855978D01*
X134591750Y-86851194D01*
X134587020Y-86839775D01*
X134578259Y-86831056D01*
X134578951Y-86820295D01*
X134573444Y-86807000D01*
X134578145Y-86783220D01*
X134579732Y-86779361D01*
X134606392Y-86733186D01*
X134620701Y-86679781D01*
X134622231Y-86676064D01*
X134636479Y-86661747D01*
X134648779Y-86645718D01*
X134652982Y-86645164D01*
X134655974Y-86642159D01*
X134676173Y-86642110D01*
X134696206Y-86639473D01*
X134702280Y-86641589D01*
X134849999Y-86684505D01*
X135350000Y-86684505D01*
X135496196Y-86642031D01*
X135496197Y-86642030D01*
X135635377Y-86559720D01*
X135635379Y-86559719D01*
X135749719Y-86445379D01*
X135749720Y-86445377D01*
X135832030Y-86306197D01*
X135832031Y-86306196D01*
X135877145Y-86150913D01*
X135877145Y-86150908D01*
X135878791Y-86130000D01*
X135350000Y-86130000D01*
X135350000Y-86684505D01*
X134849999Y-86684505D01*
X134850000Y-86684504D01*
X134850000Y-85890000D01*
X136125495Y-85890000D01*
X136167968Y-86036196D01*
X136167969Y-86036197D01*
X136250279Y-86175377D01*
X136364622Y-86289720D01*
X136503802Y-86372030D01*
X136503803Y-86372031D01*
X136659078Y-86417143D01*
X136680000Y-86418789D01*
X136680000Y-85890000D01*
X136125495Y-85890000D01*
X134850000Y-85890000D01*
X134850000Y-85064000D01*
X134868306Y-85019806D01*
X134912500Y-85001500D01*
X134995000Y-85001500D01*
X134995000Y-83995000D01*
X134947164Y-83995000D01*
X134887625Y-84001401D01*
X134884370Y-84002171D01*
X134855630Y-84002171D01*
X134852374Y-84001401D01*
X134792835Y-83995000D01*
X134745000Y-83995000D01*
X134745000Y-84770000D01*
X134726694Y-84814194D01*
X134682500Y-84832500D01*
X134557500Y-84832500D01*
X134513306Y-84814194D01*
X134495000Y-84770000D01*
X134495000Y-83995000D01*
X134447164Y-83995000D01*
X134387622Y-84001402D01*
X134252908Y-84051647D01*
X134252905Y-84051649D01*
X134137813Y-84137808D01*
X134051646Y-84252912D01*
X134051301Y-84253839D01*
X134050911Y-84254257D01*
X134049504Y-84256835D01*
X134048846Y-84256475D01*
X134043602Y-84262108D01*
X134040055Y-84272837D01*
X134028830Y-84277975D01*
X134018707Y-84288851D01*
X133997321Y-84294332D01*
X133995034Y-84294500D01*
X133975252Y-84294500D01*
X133963665Y-84296804D01*
X133959824Y-84297087D01*
X133940493Y-84290694D01*
X133920519Y-84286721D01*
X133918262Y-84283343D01*
X133914407Y-84282069D01*
X133905257Y-84263879D01*
X133893944Y-84246946D01*
X133893944Y-84241387D01*
X133892912Y-84239335D01*
X133893944Y-84236211D01*
X133893946Y-84222558D01*
X133895500Y-84214748D01*
X133895500Y-83925252D01*
X133883867Y-83866769D01*
X133875817Y-83854722D01*
X133866485Y-83807808D01*
X133867096Y-83805060D01*
X133869719Y-83794403D01*
X133883867Y-83773231D01*
X133895500Y-83714748D01*
X133895500Y-83689679D01*
X133897312Y-83682319D01*
X133907333Y-83668691D01*
X133913806Y-83653065D01*
X133923320Y-83646951D01*
X133925651Y-83643782D01*
X133929062Y-83643261D01*
X133933216Y-83640592D01*
X133933164Y-83640497D01*
X133934503Y-83639765D01*
X133936168Y-83638696D01*
X133937089Y-83638352D01*
X134052188Y-83552188D01*
X134138354Y-83437086D01*
X134157349Y-83386159D01*
X134189944Y-83351148D01*
X134215908Y-83345500D01*
X134264748Y-83345500D01*
X134323231Y-83333867D01*
X134335277Y-83325817D01*
X134382192Y-83316485D01*
X134404721Y-83325817D01*
X134416769Y-83333867D01*
X134475252Y-83345500D01*
X134764748Y-83345500D01*
X134823231Y-83333867D01*
X134835277Y-83325817D01*
X134882192Y-83316485D01*
X134904721Y-83325817D01*
G37*
%TD.AperFunction*%
%TA.AperFunction,Conductor*%
G36*
X131606694Y-84348306D02*
G01*
X131625000Y-84392500D01*
X131625000Y-85304999D01*
X131648312Y-85304999D01*
X131648323Y-85304998D01*
X131747597Y-85294857D01*
X131750940Y-85294142D01*
X131751171Y-85295225D01*
X131795041Y-85298415D01*
X131826325Y-85334603D01*
X131829500Y-85354271D01*
X131829500Y-85409567D01*
X131849978Y-85485986D01*
X131849978Y-85485988D01*
X131880542Y-85538926D01*
X131883485Y-85544023D01*
X131889540Y-85554511D01*
X131921585Y-85586556D01*
X131923093Y-85588306D01*
X131929913Y-85608989D01*
X131938246Y-85629105D01*
X131937300Y-85631388D01*
X131938074Y-85633735D01*
X131928272Y-85653182D01*
X131919940Y-85673299D01*
X131917657Y-85674244D01*
X131916545Y-85676452D01*
X131895861Y-85683272D01*
X131875746Y-85691605D01*
X131872903Y-85690843D01*
X131871116Y-85691433D01*
X131866589Y-85689151D01*
X131844496Y-85683232D01*
X131793185Y-85653607D01*
X131793182Y-85653606D01*
X131665898Y-85619501D01*
X131665893Y-85619500D01*
X131665892Y-85619500D01*
X131534108Y-85619500D01*
X131534106Y-85619500D01*
X131472327Y-85636053D01*
X131424901Y-85629808D01*
X131395782Y-85591858D01*
X131386393Y-85556817D01*
X131386392Y-85556814D01*
X131379007Y-85544023D01*
X131320500Y-85442686D01*
X131320498Y-85442684D01*
X131320495Y-85442680D01*
X131227319Y-85349504D01*
X131227310Y-85349497D01*
X131156250Y-85308470D01*
X131127130Y-85270520D01*
X131125000Y-85254344D01*
X131125000Y-84392500D01*
X131143306Y-84348306D01*
X131187500Y-84330000D01*
X131562500Y-84330000D01*
X131606694Y-84348306D01*
G37*
%TD.AperFunction*%
%TA.AperFunction,Conductor*%
G36*
X132710409Y-83588585D02*
G01*
X132717755Y-83593320D01*
X132776548Y-83637332D01*
X132783939Y-83640863D01*
X132798219Y-83656740D01*
X132813848Y-83671287D01*
X132814660Y-83675020D01*
X132815927Y-83676429D01*
X132815739Y-83679976D01*
X132819500Y-83697259D01*
X132819500Y-83714748D01*
X132831132Y-83773230D01*
X132831133Y-83773231D01*
X132839182Y-83785278D01*
X132848513Y-83832195D01*
X132839182Y-83854722D01*
X132831133Y-83866768D01*
X132831132Y-83866769D01*
X132819500Y-83925251D01*
X132819500Y-84214748D01*
X132831132Y-84273230D01*
X132831133Y-84273231D01*
X132839182Y-84285278D01*
X132848513Y-84332195D01*
X132839182Y-84354722D01*
X132831133Y-84366768D01*
X132831132Y-84366769D01*
X132819500Y-84425251D01*
X132819500Y-84714748D01*
X132831132Y-84773230D01*
X132831133Y-84773232D01*
X132875447Y-84839552D01*
X132941767Y-84883866D01*
X132941769Y-84883867D01*
X133000252Y-84895500D01*
X133000268Y-84895500D01*
X133000611Y-84895534D01*
X133000722Y-84895593D01*
X133003263Y-84896099D01*
X133003109Y-84896868D01*
X133042804Y-84918074D01*
X133057000Y-84957735D01*
X133057000Y-85470498D01*
X133038694Y-85514692D01*
X132994500Y-85532998D01*
X132950306Y-85514692D01*
X132940374Y-85501748D01*
X132900502Y-85432689D01*
X132900495Y-85432680D01*
X132807319Y-85339504D01*
X132807315Y-85339501D01*
X132807314Y-85339500D01*
X132730628Y-85295225D01*
X132693185Y-85273607D01*
X132693182Y-85273606D01*
X132565898Y-85239501D01*
X132565893Y-85239500D01*
X132565892Y-85239500D01*
X132493000Y-85239500D01*
X132448806Y-85221194D01*
X132430500Y-85177000D01*
X132430500Y-83820329D01*
X132430499Y-83820324D01*
X132430001Y-83818467D01*
X132422368Y-83789979D01*
X132410022Y-83743902D01*
X132384765Y-83700155D01*
X132383185Y-83696324D01*
X132383217Y-83676233D01*
X132380596Y-83656323D01*
X132383254Y-83652857D01*
X132383262Y-83648489D01*
X132397489Y-83634306D01*
X132409716Y-83618373D01*
X132414856Y-83616995D01*
X132417141Y-83614718D01*
X132423318Y-83614727D01*
X132440966Y-83609999D01*
X132544644Y-83609999D01*
X132544647Y-83609998D01*
X132580911Y-83607145D01*
X132662863Y-83583336D01*
X132710409Y-83588585D01*
G37*
%TD.AperFunction*%
%TA.AperFunction,Conductor*%
G36*
X141469360Y-80155806D02*
G01*
X142110591Y-80797037D01*
X142047007Y-80814075D01*
X141932993Y-80879901D01*
X141839901Y-80972993D01*
X141774075Y-81087007D01*
X141757037Y-81150591D01*
X141124727Y-80518281D01*
X141124727Y-80518282D01*
X141085381Y-80572439D01*
X141085378Y-80572444D01*
X140988906Y-80761778D01*
X140988905Y-80761781D01*
X140923241Y-80963875D01*
X140923241Y-80963876D01*
X140890001Y-81173739D01*
X140890000Y-81173755D01*
X140890000Y-81386244D01*
X140890001Y-81386260D01*
X140923241Y-81596123D01*
X140923241Y-81596124D01*
X140988905Y-81798218D01*
X140988906Y-81798221D01*
X141085379Y-81987557D01*
X141124727Y-82041716D01*
X141757036Y-81409406D01*
X141774075Y-81472993D01*
X141839901Y-81587007D01*
X141932993Y-81680099D01*
X142047007Y-81745925D01*
X142110591Y-81762962D01*
X141478281Y-82395271D01*
X141532442Y-82434620D01*
X141721778Y-82531093D01*
X141721781Y-82531094D01*
X141923875Y-82596758D01*
X142133739Y-82629998D01*
X142133755Y-82630000D01*
X142346245Y-82630000D01*
X142346260Y-82629998D01*
X142556123Y-82596758D01*
X142556124Y-82596758D01*
X142758218Y-82531094D01*
X142758226Y-82531090D01*
X142947549Y-82434625D01*
X143001716Y-82395270D01*
X142369408Y-81762962D01*
X142432993Y-81745925D01*
X142547007Y-81680099D01*
X142640099Y-81587007D01*
X142705925Y-81472993D01*
X142722962Y-81409408D01*
X143364194Y-82050640D01*
X143382500Y-82094834D01*
X143382500Y-83544476D01*
X143364194Y-83588670D01*
X143320000Y-83606976D01*
X143275806Y-83588670D01*
X143258701Y-83556669D01*
X143255381Y-83539978D01*
X143250130Y-83513580D01*
X143170941Y-83322402D01*
X143170939Y-83322400D01*
X143170939Y-83322398D01*
X143055977Y-83150345D01*
X142909654Y-83004022D01*
X142737601Y-82889060D01*
X142737598Y-82889059D01*
X142546418Y-82809869D01*
X142343465Y-82769500D01*
X142136535Y-82769500D01*
X141933581Y-82809869D01*
X141742401Y-82889059D01*
X141742398Y-82889060D01*
X141570345Y-83004022D01*
X141424022Y-83150345D01*
X141309060Y-83322398D01*
X141309059Y-83322401D01*
X141243399Y-83480918D01*
X141209574Y-83514743D01*
X141185657Y-83519500D01*
X137040432Y-83519500D01*
X136964013Y-83539978D01*
X136964011Y-83539978D01*
X136907290Y-83572727D01*
X136895488Y-83579540D01*
X136723835Y-83751194D01*
X136679641Y-83769500D01*
X136483000Y-83769500D01*
X136438806Y-83751194D01*
X136420500Y-83707000D01*
X136420500Y-83425252D01*
X136408867Y-83366769D01*
X136400817Y-83354722D01*
X136391485Y-83307808D01*
X136400817Y-83285278D01*
X136408867Y-83273231D01*
X136420500Y-83214748D01*
X136420500Y-82925252D01*
X136408867Y-82866769D01*
X136408866Y-82866767D01*
X136364552Y-82800447D01*
X136298232Y-82756133D01*
X136298230Y-82756132D01*
X136239748Y-82744500D01*
X135525252Y-82744500D01*
X135525248Y-82744500D01*
X135520192Y-82745506D01*
X135473275Y-82736173D01*
X135446701Y-82696399D01*
X135445500Y-82684207D01*
X135445500Y-82450252D01*
X135433867Y-82391769D01*
X135431033Y-82387527D01*
X135420500Y-82352804D01*
X135420500Y-82333000D01*
X135438806Y-82288806D01*
X135483000Y-82270500D01*
X135526798Y-82270500D01*
X135570992Y-82288806D01*
X135652680Y-82370495D01*
X135652684Y-82370498D01*
X135652686Y-82370500D01*
X135766814Y-82436392D01*
X135766817Y-82436393D01*
X135844712Y-82457264D01*
X135894108Y-82470500D01*
X135894109Y-82470500D01*
X136025891Y-82470500D01*
X136025892Y-82470500D01*
X136153186Y-82436392D01*
X136267314Y-82370500D01*
X136288314Y-82349500D01*
X136310558Y-82327257D01*
X136360495Y-82277319D01*
X136360500Y-82277314D01*
X136426392Y-82163186D01*
X136460500Y-82035892D01*
X136460500Y-81904108D01*
X136433705Y-81804108D01*
X136426393Y-81776817D01*
X136426392Y-81776814D01*
X136390942Y-81715413D01*
X136360500Y-81662686D01*
X136360498Y-81662684D01*
X136360495Y-81662680D01*
X136267319Y-81569504D01*
X136267315Y-81569501D01*
X136267314Y-81569500D01*
X136170881Y-81513824D01*
X136153185Y-81503607D01*
X136153182Y-81503606D01*
X136025898Y-81469501D01*
X136025893Y-81469500D01*
X136025892Y-81469500D01*
X135894108Y-81469500D01*
X135894107Y-81469500D01*
X135894101Y-81469501D01*
X135766817Y-81503606D01*
X135766814Y-81503607D01*
X135652684Y-81569501D01*
X135652680Y-81569504D01*
X135570992Y-81651194D01*
X135526798Y-81669500D01*
X135424453Y-81669500D01*
X135380259Y-81651194D01*
X135361953Y-81607000D01*
X135380259Y-81562806D01*
X135393203Y-81552874D01*
X135395753Y-81551400D01*
X135397314Y-81550500D01*
X135490500Y-81457314D01*
X135556392Y-81343186D01*
X135590500Y-81215892D01*
X135590500Y-81084108D01*
X135560356Y-80971607D01*
X135556393Y-80956817D01*
X135556392Y-80956814D01*
X135523294Y-80899487D01*
X135490500Y-80842686D01*
X135490498Y-80842684D01*
X135490495Y-80842680D01*
X135397319Y-80749504D01*
X135397315Y-80749501D01*
X135397314Y-80749500D01*
X135310719Y-80699504D01*
X135283185Y-80683607D01*
X135283182Y-80683606D01*
X135155898Y-80649501D01*
X135155893Y-80649500D01*
X135155892Y-80649500D01*
X135024108Y-80649500D01*
X135024107Y-80649500D01*
X135024101Y-80649501D01*
X134896817Y-80683606D01*
X134896814Y-80683607D01*
X134782684Y-80749501D01*
X134782680Y-80749504D01*
X134689504Y-80842680D01*
X134689501Y-80842684D01*
X134623607Y-80956814D01*
X134623606Y-80956817D01*
X134589501Y-81084101D01*
X134589500Y-81084109D01*
X134589500Y-81199640D01*
X134571194Y-81243834D01*
X134503360Y-81311669D01*
X134503357Y-81311672D01*
X134489190Y-81325837D01*
X134444995Y-81344140D01*
X134400805Y-81325834D01*
X134268806Y-81193835D01*
X134250500Y-81149641D01*
X134250500Y-81034109D01*
X134250498Y-81034101D01*
X134216393Y-80906817D01*
X134216392Y-80906814D01*
X134196115Y-80871694D01*
X134150500Y-80792686D01*
X134150498Y-80792684D01*
X134150495Y-80792680D01*
X134057319Y-80699504D01*
X134057315Y-80699501D01*
X134057314Y-80699500D01*
X134000250Y-80666554D01*
X133943185Y-80633607D01*
X133943182Y-80633606D01*
X133815898Y-80599501D01*
X133815893Y-80599500D01*
X133815892Y-80599500D01*
X133684108Y-80599500D01*
X133684107Y-80599500D01*
X133684101Y-80599501D01*
X133556817Y-80633606D01*
X133556814Y-80633607D01*
X133442684Y-80699501D01*
X133442680Y-80699504D01*
X133360992Y-80781194D01*
X133316798Y-80799500D01*
X131623000Y-80799500D01*
X131578806Y-80781194D01*
X131560500Y-80737000D01*
X131560499Y-80430108D01*
X131560499Y-80430100D01*
X131553972Y-80380513D01*
X131503224Y-80271684D01*
X131503222Y-80271682D01*
X131503222Y-80271681D01*
X131475735Y-80244194D01*
X131457429Y-80200000D01*
X131475735Y-80155806D01*
X131519929Y-80137500D01*
X141425166Y-80137500D01*
X141469360Y-80155806D01*
G37*
%TD.AperFunction*%
%TA.AperFunction,Conductor*%
G36*
X133427991Y-81485806D02*
G01*
X133442680Y-81500495D01*
X133442684Y-81500498D01*
X133442686Y-81500500D01*
X133529292Y-81550502D01*
X133556814Y-81566392D01*
X133556817Y-81566393D01*
X133568428Y-81569504D01*
X133684108Y-81600500D01*
X133684109Y-81600500D01*
X133799641Y-81600500D01*
X133843835Y-81618806D01*
X133968065Y-81743036D01*
X133986371Y-81787230D01*
X133986371Y-82070619D01*
X133968065Y-82114813D01*
X133935489Y-82147389D01*
X133919696Y-82163182D01*
X133879541Y-82203336D01*
X133839978Y-82271860D01*
X133839978Y-82271862D01*
X133819500Y-82348281D01*
X133819500Y-82352804D01*
X133814432Y-82377458D01*
X133812161Y-82382746D01*
X133806133Y-82391769D01*
X133804271Y-82401125D01*
X133801684Y-82407154D01*
X133788895Y-82419619D01*
X133778973Y-82434468D01*
X133771263Y-82436806D01*
X133767429Y-82440544D01*
X133759285Y-82440439D01*
X133744252Y-82445000D01*
X133482500Y-82445000D01*
X133482500Y-83007500D01*
X133464194Y-83051694D01*
X133420000Y-83070000D01*
X133295000Y-83070000D01*
X133250806Y-83051694D01*
X133232500Y-83007500D01*
X133232500Y-82445000D01*
X133168324Y-82445000D01*
X133124130Y-82426694D01*
X133105824Y-82382500D01*
X133124130Y-82338306D01*
X133137070Y-82328375D01*
X133237314Y-82270500D01*
X133330500Y-82177314D01*
X133396392Y-82063186D01*
X133430500Y-81935892D01*
X133430500Y-81804108D01*
X133410520Y-81729540D01*
X133396393Y-81676817D01*
X133396389Y-81676808D01*
X133329671Y-81561250D01*
X133323427Y-81513824D01*
X133352547Y-81475874D01*
X133399973Y-81469630D01*
X133427991Y-81485806D01*
G37*
%TD.AperFunction*%
%TA.AperFunction,Conductor*%
G36*
X130962033Y-82150488D02*
G01*
X130974500Y-82187944D01*
X130974500Y-82294750D01*
X130983064Y-82337808D01*
X130983064Y-82362192D01*
X130974500Y-82405249D01*
X130974500Y-82662000D01*
X130956194Y-82706194D01*
X130912000Y-82724500D01*
X130655249Y-82724500D01*
X130612192Y-82733064D01*
X130587808Y-82733064D01*
X130544750Y-82724500D01*
X130544748Y-82724500D01*
X130437945Y-82724500D01*
X130393751Y-82706194D01*
X130375445Y-82662000D01*
X130387912Y-82624545D01*
X130468350Y-82517094D01*
X130468352Y-82517091D01*
X130518597Y-82382377D01*
X130524259Y-82329720D01*
X130547184Y-82287736D01*
X130579720Y-82274259D01*
X130632377Y-82268597D01*
X130767090Y-82218352D01*
X130874544Y-82137911D01*
X130920894Y-82126080D01*
X130962033Y-82150488D01*
G37*
%TD.AperFunction*%
%TA.AperFunction,Conductor*%
G36*
X129371089Y-80155806D02*
G01*
X129389395Y-80200000D01*
X129386913Y-80217437D01*
X129342854Y-80369086D01*
X129342854Y-80369091D01*
X129341208Y-80389999D01*
X129341209Y-80390000D01*
X130057500Y-80390000D01*
X130101694Y-80408306D01*
X130120000Y-80452500D01*
X130120000Y-80827500D01*
X130101694Y-80871694D01*
X130057500Y-80890000D01*
X129327959Y-80890000D01*
X129283765Y-80871694D01*
X129250870Y-80838799D01*
X129232564Y-80794605D01*
X129232564Y-80712530D01*
X129232562Y-80712522D01*
X129198457Y-80585238D01*
X129198456Y-80585235D01*
X129191068Y-80572439D01*
X129132564Y-80471107D01*
X129132562Y-80471105D01*
X129132559Y-80471101D01*
X129039383Y-80377925D01*
X129039379Y-80377922D01*
X129039378Y-80377921D01*
X128982314Y-80344975D01*
X128925249Y-80312028D01*
X128925246Y-80312027D01*
X128797962Y-80277922D01*
X128797957Y-80277921D01*
X128797956Y-80277921D01*
X128666172Y-80277921D01*
X128666171Y-80277921D01*
X128666165Y-80277922D01*
X128538881Y-80312027D01*
X128538878Y-80312028D01*
X128424748Y-80377922D01*
X128424744Y-80377925D01*
X128331568Y-80471101D01*
X128331565Y-80471105D01*
X128265671Y-80585235D01*
X128265670Y-80585238D01*
X128231565Y-80712522D01*
X128231564Y-80712530D01*
X128231564Y-80844311D01*
X128231565Y-80844319D01*
X128265670Y-80971603D01*
X128265671Y-80971606D01*
X128265672Y-80971607D01*
X128330625Y-81084109D01*
X128331565Y-81085736D01*
X128331568Y-81085740D01*
X128356554Y-81110726D01*
X128374860Y-81154920D01*
X128356554Y-81199114D01*
X128344178Y-81208715D01*
X128324620Y-81220282D01*
X128210280Y-81334621D01*
X128210279Y-81334622D01*
X128166796Y-81408149D01*
X128128543Y-81436871D01*
X128081185Y-81430130D01*
X128052463Y-81391877D01*
X128050500Y-81376334D01*
X128050500Y-80410252D01*
X128038867Y-80351769D01*
X128038866Y-80351767D01*
X127994552Y-80285447D01*
X127944445Y-80251967D01*
X127917869Y-80212193D01*
X127927201Y-80165277D01*
X127966975Y-80138701D01*
X127979168Y-80137500D01*
X129326895Y-80137500D01*
X129371089Y-80155806D01*
G37*
%TD.AperFunction*%
%TD*%
M02*
